<?xml version="1.0" encoding="UTF-8"?>
<svg xmlns="http://www.w3.org/2000/svg" viewBox="0 0 3103 2282" width="3103" height="2282">
  <title>boca y dientes — referencia vectorizada</title>
  <desc>Vectorización editable desde boca y dientes.png. Capas: red: 2, white: 3. Fondo transparente.</desc>
  <path id="red" fill="#ff0000" fill-rule="evenodd" d="M1294.6 0.0L1327.4 0.0L1441.2 48.3L1572.2 118.9L1660.1 182.7L1677.3 191.3L1704.9 198.2L1732.5 193.0L1749.7 179.3L1767.0 148.2L1773.9 115.5L1789.4 103.4L1837.7 75.8L1903.2 53.4L1980.7 43.1L2066.9 48.3L2135.9 63.8L2215.2 93.1L2280.7 125.8L2363.5 177.5L2432.4 229.2L2508.3 294.7L2580.7 365.4L2580.7 368.8L2692.7 486.0L2789.3 596.4L2868.6 694.6L2932.3 784.2L2980.6 870.4L2997.8 918.7L3003.0 949.7L3001.3 982.4L2987.5 1029.0L2985.8 1046.2L3028.9 1075.5L3054.7 1101.4L3077.1 1132.4L3097.8 1182.4L3103.0 1235.8L3094.4 1287.5L3065.1 1354.7L3030.6 1406.4L2980.6 1461.6L2982.3 1523.6L2973.7 1639.1L2956.5 1737.4L2928.9 1828.7L2896.1 1899.4L2877.2 1930.4L2847.9 1968.3L2809.9 2004.5L2754.8 2039.0L2730.6 2030.4L2699.6 2025.2L2634.1 2025.2L2578.9 2033.8L2491.0 2059.7L2432.4 2083.8L2366.9 2116.5L2282.4 2166.5L2234.2 2201.0L2185.9 2226.8L2132.5 2247.5L2082.5 2261.3L1970.4 2278.6L1839.4 2282.0L1718.7 2273.4L1610.1 2257.9L1477.4 2230.3L1329.1 2188.9L1196.4 2142.4L1055.0 2082.1L941.2 2023.5L832.6 1956.2L743.0 1887.3L682.7 1827.0L593.0 1828.7L517.2 1820.1L425.8 1797.7L368.9 1775.3L312.0 1744.2L256.9 1702.9L212.0 1656.3L182.7 1616.7L181.0 1609.8L165.5 1602.9L137.9 1582.2L93.1 1535.7L60.3 1487.4L39.6 1446.1L17.2 1380.6L1.7 1291.0L0.0 1192.7L24.1 966.9L43.1 868.7L58.6 825.6L75.9 791.1L115.5 732.5L215.5 618.8L460.3 370.6L515.4 320.6L586.1 263.7L689.6 193.0L812.0 125.8L889.5 91.3L974.0 60.3L1049.8 37.9L1142.9 17.2L1210.2 6.9ZM963.7 548.1L899.9 555.0L832.6 568.8L765.4 589.5L679.2 625.7L612.0 661.8L534.4 711.8L470.6 760.1L417.2 806.6L381.0 880.7L343.1 975.5L317.2 1056.5L298.2 1139.3L287.9 1232.3L289.6 1291.0L301.7 1349.6L301.7 1366.8L317.2 1385.7L362.0 1411.6L413.7 1432.3L508.5 1461.6L636.1 1492.6L867.1 1537.4L1141.2 1580.5L1270.5 1596.0L1358.4 1615.0L1413.6 1633.9L1475.6 1665.0L1518.7 1696.0L1551.5 1732.2L1636.0 1739.1L1765.3 1766.7L1899.7 1808.0L1972.1 1837.3L2079.0 1827.0L2218.6 1804.6L2329.0 1780.4L2441.0 1747.7L2535.8 1709.8L2596.2 1677.0L2651.3 1635.7L2684.1 1597.7L2672.0 1546.0L2665.1 1478.8L2666.9 1418.5L2677.2 1358.2L2689.3 1322.0L2718.6 1270.3L2753.1 1234.1L2794.4 1206.5L2773.7 1177.2L2758.2 1146.2L2742.7 1099.6L2737.5 1051.4L2741.0 1022.1L2747.9 1001.4L2708.2 965.2L2646.2 916.9L2532.4 841.1L2375.5 756.6L2254.8 704.9L2098.0 653.2L1949.7 618.8L1851.5 603.2L1768.7 594.6L1673.9 589.5L1580.8 589.5L1444.6 598.1L1289.5 620.5L1279.1 611.9L1227.4 587.7L1127.4 558.4L1046.4 548.1Z"/>
  <path id="white" fill="#ffffff" fill-rule="evenodd" d="M967.1 548.1L1065.4 549.8L1141.2 561.9L1230.9 589.5L1272.2 608.4L1289.5 620.5L1430.8 599.8L1544.6 591.2L1708.4 591.2L1820.4 599.8L1929.0 615.3L2058.3 642.9L2170.4 675.6L2170.4 691.1L2156.6 772.2L2135.9 839.4L2106.6 898.0L2075.6 939.3L2027.3 982.4L1972.1 1013.5L1896.3 1037.6L1837.7 1046.2L1532.5 1061.7L1349.8 1063.4L1236.0 1053.1L1192.9 1042.8L1161.9 1029.0L1137.8 1008.3L1129.1 989.3L1127.4 961.7L1130.9 932.4L1144.7 865.2L1167.1 787.7L1220.5 642.9L1156.7 729.1L1106.7 782.5L1072.3 813.5L1001.6 863.5L956.8 885.9L918.8 899.7L849.9 911.8L727.5 911.8L610.3 904.9L537.9 896.3L463.7 880.7L417.2 861.8L403.4 849.7L401.7 837.7L418.9 804.9L448.2 779.1L549.9 701.5L643.0 644.6L722.3 606.7L803.3 577.4L891.3 556.7ZM494.8 948.0L567.2 949.7L612.0 954.9L694.7 973.8L744.7 992.8L782.6 1011.7L820.6 1035.9L858.5 1066.9L913.7 1130.7L936.1 1166.9L956.8 1209.9L970.5 1247.9L1006.8 1430.6L1111.9 1430.6L1094.7 1358.2L1086.0 1294.4L1084.3 1215.1L1089.5 1177.2L1099.8 1142.7L1115.4 1115.1L1148.1 1087.6L1186.0 1073.8L1234.3 1065.2L1261.9 1065.2L1299.8 1072.1L1336.0 1087.6L1387.7 1123.8L1467.0 1125.5L1513.6 1139.3L1549.8 1161.7L1577.4 1189.3L1617.0 1168.6L1680.8 1153.1L1742.9 1154.8L1798.0 1170.3L1837.7 1191.0L1868.7 1213.4L1917.0 1259.9L1937.7 1285.8L1937.7 1663.2L2006.6 1663.2L1994.5 1620.2L1982.5 1554.7L1975.6 1480.5L1975.6 1437.5L1987.6 1353.0L2011.8 1294.4L2029.0 1270.3L2070.4 1228.9L2110.0 1197.9L2156.6 1166.9L2232.4 1123.8L2313.5 1084.1L2394.5 1049.7L2420.3 1047.9L2442.8 1053.1L2492.7 1075.5L2546.2 1118.6L2585.8 1170.3L2615.1 1225.5L2637.5 1285.8L2658.2 1372.0L2665.1 1416.8L2668.6 1523.6L2684.1 1597.7L2641.0 1644.3L2592.7 1678.8L2523.8 1714.9L2449.6 1744.2L2341.0 1777.0L2225.5 1802.8L2089.4 1825.3L1973.9 1837.3L1891.1 1804.6L1773.9 1768.4L1658.4 1742.5L1549.8 1730.5L1515.3 1692.5L1470.5 1661.5L1401.5 1628.8L1341.2 1609.8L1284.3 1597.7L1027.4 1563.3L782.6 1521.9L577.5 1478.8L462.0 1447.8L370.6 1415.0L327.5 1392.6L308.6 1377.1L301.7 1366.8L303.4 1354.7L293.1 1315.1L289.6 1270.3L432.7 954.9ZM2782.4 1191.0L2794.4 1208.2L2778.9 1215.1Z"/>
</svg>
