<?xml version="1.0" encoding="UTF-8"?>
<svg xmlns="http://www.w3.org/2000/svg" viewBox="0 0 4864 3860" width="4864" height="3860">
  <title>DIENTES — referencia vectorizada</title>
  <desc>Vectorización editable desde DIENTES.png. Capas: white: 30. Fondo transparente.</desc>
  <path id="white" fill="#ffffff" fill-rule="evenodd" d="M4334.4 0.0L4599.2 40.5L4785.6 54.1L4853.2 186.5L4864.0 221.7L4861.3 240.6L4850.5 251.4L4828.9 251.4L4810.0 240.6L4804.6 286.5L4791.0 305.4L4780.2 310.9L4753.2 310.9L4734.3 302.7L4715.4 283.8L4707.3 262.2L4707.3 159.5L4696.5 137.9L4683.0 129.7L4672.1 197.3L4672.1 364.9L4577.6 270.3L4577.6 116.2L4566.8 102.7L4561.4 110.8L4547.8 248.7L4412.7 248.7L4404.6 75.7L4369.5 64.9L4364.1 302.7L4242.5 300.0L4239.8 140.6L4237.1 89.2L4231.7 89.2L4207.4 100.0L4229.0 305.4L4102.0 319.0L4102.0 62.2ZM1529.5 27.0L2080.7 40.5L2094.2 46.0L2188.8 127.0L2064.5 283.8L2048.3 294.6L1924.0 270.3L1986.1 94.6L1791.6 75.7L1797.0 289.2L1588.9 273.0L1570.0 256.8L1545.7 210.8L1491.6 70.3L1491.6 59.5ZM3439.9 35.1L3510.2 35.1L3526.4 46.0L3529.1 67.6L3518.3 81.1L3469.7 108.1L3445.3 135.2L3423.7 178.4L3415.6 210.8L3396.7 235.2L3377.8 235.2L3361.6 221.7L3334.5 129.7L3294.0 213.5L3269.7 283.8L3250.8 308.2L3223.8 305.4L3207.5 281.1L3183.2 181.1L3172.4 100.0L3123.8 100.0L3072.4 237.9L3021.1 424.4L3007.6 440.6L2983.3 446.0L2953.5 424.4L2923.8 364.9L2877.9 232.5L2837.3 70.3L3302.1 51.4ZM591.8 40.5L691.8 46.0L770.1 67.6L821.5 97.3L856.6 132.5L883.6 181.1L899.8 254.1L899.8 313.6L889.0 373.0L864.7 429.8L845.8 456.8L818.8 483.9L778.2 510.9L716.1 535.2L629.6 548.7L521.5 546.0L424.2 529.8L310.8 497.4L229.7 464.9L132.4 413.6L89.2 383.8L62.2 354.1L54.0 332.5L54.0 300.0L64.9 270.3L121.6 205.4L186.5 159.5L283.7 110.8L383.7 75.7L472.9 54.1ZM505.3 70.3L497.2 75.7L491.8 91.9L497.2 175.7L478.3 202.7L437.8 208.1L410.7 197.3L381.0 173.0L359.4 140.6L343.2 135.2L332.4 146.0L332.4 164.9L345.9 197.3L345.9 232.5L337.8 251.4L321.6 267.6L310.8 273.0L283.7 273.0L272.9 267.6L256.7 248.7L243.2 218.9L229.7 205.4L213.5 202.7L202.7 216.2L194.6 251.4L181.0 267.6L143.2 289.2L100.0 294.6L91.9 310.9L105.4 319.0L159.4 305.4L210.8 305.4L229.7 313.6L248.6 343.3L254.0 408.2L272.9 424.4L291.8 424.4L318.9 405.5L340.5 373.0L386.4 254.1L399.9 240.6L413.4 240.6L432.4 256.8L440.5 273.0L467.5 432.5L478.3 459.5L497.2 481.1L516.1 489.3L535.0 489.3L556.7 473.0L559.4 413.6L551.3 375.7L551.3 329.8L570.2 308.2L589.1 310.9L618.8 340.6L675.6 416.3L716.1 456.8L745.8 462.2L772.8 448.7L813.4 405.5L840.4 340.6L845.8 270.3L837.7 232.5L826.9 213.5L810.7 208.1L797.2 213.5L767.4 243.3L710.7 321.7L683.7 327.1L664.7 310.9L656.6 278.4L659.3 178.4L670.2 108.1L667.4 73.0L659.3 73.0L640.4 91.9L621.5 124.3L591.8 224.4L575.6 237.9L554.0 237.9L543.1 224.4L537.7 186.5L540.4 97.3L521.5 70.3ZM4285.7 821.7L4439.8 824.4L4539.7 832.5L4658.6 851.5L4785.6 883.9L4812.7 910.9L4837.0 959.6L4842.4 1024.5L4831.6 1065.0L4828.9 1070.4L4799.1 1070.4L4780.2 1062.3L4764.0 1043.4L4758.6 1024.5L4758.6 927.2L4739.7 905.5L4712.7 908.2L4704.6 924.5L4707.3 962.3L4723.5 1024.5L4720.8 1067.7L4704.6 1081.2L4666.7 1081.2L4645.1 1073.1L4647.8 935.3L4639.7 889.3L4618.1 892.0L4618.1 1070.4L4534.3 1070.4L4534.3 881.2L4504.6 878.5L4499.2 981.2L4469.5 983.9L4407.3 967.7L4380.3 954.2L4361.4 916.3L4366.8 875.8L4347.9 867.7L4320.9 992.0L4299.2 1005.5L4266.8 1008.2L4247.9 1000.1L4234.4 981.2L4234.4 935.3L4250.6 873.1L4212.8 873.1L4207.4 959.6L4231.7 1059.6L4226.3 1078.5L4202.0 1083.9L4180.3 1075.8L4169.5 1065.0L4161.4 1040.7L4161.4 962.3L4156.0 938.0L4145.2 927.2L4120.9 927.2L4107.4 938.0L4104.7 967.7L4118.2 1011.0L4156.0 1075.8L4156.0 1083.9L4142.5 1108.3L4123.6 1121.8L4096.6 1121.8L4072.2 1108.3L4039.8 1067.7L4026.3 1027.2L4029.0 981.2L4047.9 943.4L4099.3 894.7L4142.5 865.0L4220.9 832.5ZM437.8 859.6L735.0 859.6L816.1 870.4L843.1 881.2L875.5 905.5L880.9 924.5L880.9 978.5L875.5 1000.1L837.7 1067.7L775.5 1129.9L529.6 1305.6L462.1 1338.0L391.8 1356.9L316.2 1359.6L245.9 1343.4L197.3 1319.1L156.7 1289.4L118.9 1251.5L78.4 1197.5L54.0 1148.8L45.9 1113.7L45.9 1083.9L54.0 1048.8L78.4 1005.5L102.7 978.5L156.7 938.0L208.1 910.9L321.6 873.1ZM1994.2 862.3L2180.7 865.0L1826.7 1224.5L1824.0 1232.6L1818.6 1229.9L1851.0 954.2L1786.2 954.2L1694.3 1186.7L1675.4 1221.8L1497.0 943.4L1497.0 938.0L1510.5 932.6L1745.6 865.0ZM491.8 900.1L470.2 905.5L381.0 1070.4L359.4 1097.5L343.2 1092.0L294.5 1005.5L245.9 946.1L162.1 997.4L124.3 1032.6L100.0 1075.8L100.0 1127.2L110.8 1156.9L164.8 1243.4L186.5 1243.4L229.7 1202.9L281.0 1173.1L329.7 1167.7L354.0 1178.5L372.9 1197.5L416.1 1265.0L435.1 1275.9L459.4 1273.2L518.8 1238.0L651.2 1173.1L735.0 1121.8L802.6 1065.0L835.0 1013.7L837.7 951.5L824.2 938.0L751.2 908.2L732.3 905.5L708.0 938.0L581.0 1067.7L581.0 1073.1L459.4 1192.1L464.8 1167.7L518.8 1056.9L543.1 970.4L540.4 905.5L532.3 900.1ZM2994.1 1086.6L3096.7 1102.9L3140.0 1297.5L3337.2 1265.0L3275.1 1181.2L3231.9 1105.6L3356.2 1092.0L3488.6 1170.4L3488.6 1178.5L3464.2 1224.5L3210.2 1321.8L3026.5 1332.6L2786.0 1281.3ZM4256.0 1616.4L4329.0 1616.4L4666.7 1638.1L4772.1 1694.8L4815.4 1724.6L4842.4 1751.6L4847.8 1762.4L4847.8 1811.1L4842.4 1830.0L4828.9 1854.3L4812.7 1867.8L4793.7 1867.8L4788.3 1862.4L4772.1 1797.5L4769.4 1702.9L4701.9 1673.2L4728.9 1854.3L4642.4 1859.7L4628.9 1670.5L4561.4 1646.2L4566.8 1857.0L4464.1 1843.5L4456.0 1646.2L4410.0 1635.4L4407.3 1878.6L4296.5 1862.4L4307.3 1643.5L4237.1 1654.3L4234.4 1857.0L4212.8 1857.0L4202.0 1838.1L4196.6 1781.3L4199.3 1654.3L4129.0 1654.3L4137.1 1711.1L4137.1 1797.5L4123.6 1857.0L4112.8 1873.2L4102.0 1873.2L4077.7 1835.4L4045.2 1711.1L4107.4 1630.0ZM729.6 1689.4L821.5 1694.8L886.3 1716.5L910.6 1735.4L926.9 1762.4L932.3 1781.3L932.3 1821.9L910.6 1892.2L859.3 1978.7L767.4 2081.4L713.4 2124.6L653.9 2162.5L564.8 2203.0L481.0 2227.3L389.1 2240.9L283.7 2240.9L200.0 2227.3L129.7 2197.6L91.9 2162.5L75.7 2132.7L67.6 2103.0L67.6 2051.6L78.4 2008.4L97.3 1965.1L132.4 1911.1L191.9 1848.9L227.0 1821.9L299.9 1781.3L424.2 1740.8L581.0 1705.6ZM1797.0 1711.1L1918.6 1713.8L2002.3 1724.6L2067.2 1743.5L2105.0 1762.4L2145.6 1797.5L2169.9 1846.2L2169.9 1913.8L2142.9 1992.2L2099.6 2059.7L2042.9 2113.8L1975.3 2154.4L1902.4 2181.4L1813.2 2197.6L1707.8 2197.6L1637.5 2186.8L1553.8 2159.8L1475.4 2113.8L1443.0 2084.1L1418.7 2051.6L1399.8 2013.8L1391.6 1981.4L1388.9 1938.1L1399.8 1878.6L1418.7 1832.7L1434.9 1811.1L1478.1 1770.5L1534.9 1743.5L1683.5 1719.2ZM626.9 1743.5L448.6 1775.9L364.8 1797.5L386.4 1832.7L394.5 1867.8L386.4 1900.3L370.2 1911.1L337.8 1916.5L305.4 1911.1L272.9 1894.9L251.3 1870.5L248.6 1857.0L229.7 1867.8L164.8 1930.0L113.5 2011.1L102.7 2046.2L100.0 2086.8L105.4 2111.1L121.6 2140.8L143.2 2162.5L164.8 2173.3L156.7 2154.4L159.4 2127.3L183.8 2076.0L227.0 2032.7L272.9 2019.2L327.0 2021.9L383.7 2070.6L413.4 2127.3L421.5 2165.2L421.5 2205.7L440.5 2205.7L462.1 2192.2L443.2 2121.9L440.5 2070.6L451.3 2040.8L464.8 2032.7L529.6 2021.9L586.4 2024.6L624.2 2048.9L664.7 2111.1L672.9 2111.1L699.9 2092.2L778.2 2021.9L832.3 1951.6L862.0 1894.9L889.0 1794.8L867.4 1757.0L845.8 1746.2L826.9 1827.3L786.3 1905.7L759.3 1932.7L740.4 1943.5L724.2 1948.9L683.7 1948.9L643.1 1930.0L626.9 1900.3ZM1780.8 1746.2L1767.3 1754.3L1772.7 1832.7L1770.0 1881.3L1751.0 1916.5L1732.1 1927.3L1686.2 1930.0L1656.5 1911.1L1634.8 1857.0L1624.0 1786.7L1610.5 1767.8L1580.8 1773.2L1607.8 1870.5L1605.1 1903.0L1588.9 1924.6L1551.1 1924.6L1478.1 1878.6L1451.1 1878.6L1432.2 1886.8L1416.0 1911.1L1416.0 1962.4L1434.9 2008.4L1488.9 2016.5L1556.5 2003.0L1580.8 2016.5L1591.6 2048.9L1591.6 2081.4L1580.8 2113.8L1580.8 2132.7L1605.1 2154.4L1624.0 2154.4L1634.8 2140.8L1629.4 2038.1L1637.5 2011.1L1653.8 1997.6L1683.5 1994.9L1718.6 2005.7L1759.1 2040.8L1780.8 2086.8L1788.9 2154.4L1797.0 2162.5L1813.2 2165.2L1837.5 2151.7L1853.7 2092.2L1859.1 2011.1L1875.3 1992.2L1888.9 1986.8L1929.4 1986.8L1961.8 2000.3L1994.2 2030.0L2015.9 2073.3L2034.8 2078.7L2056.4 2065.2L2061.8 2046.2L2024.0 1981.4L2024.0 1957.0L2032.1 1935.4L2045.6 1924.6L2069.9 1924.6L2096.9 1938.1L2115.8 1957.0L2123.9 1921.9L2123.9 1859.7L2113.1 1819.2L2096.9 1797.5L2083.4 1803.0L2069.9 1830.0L2051.0 1846.2L2032.1 1848.9L1999.6 1840.8L1980.7 1824.6L1980.7 1775.9L1975.3 1759.7L1948.3 1746.2L1948.3 1830.0L1937.5 1878.6L1910.5 1913.8L1894.3 1921.9L1861.8 1921.9L1848.3 1916.5L1829.4 1892.2L1821.3 1862.4L1813.2 1778.6L1794.3 1751.6ZM3212.9 1840.8L3258.9 1840.8L3267.0 1848.9L3291.3 1959.7L3234.6 2000.3L3210.2 2030.0L3188.6 2070.6L3172.4 2130.0L3169.7 2208.4L2999.5 2224.6L2918.4 2173.3L2848.1 2094.9L2837.3 1954.3L3056.2 1948.9L3034.6 1981.4L3018.4 2021.9L3018.4 2092.2L3037.3 2130.0L3056.2 2146.2L3083.2 2157.1L3121.1 2159.8L3137.3 2024.6L3153.5 1986.8L3126.5 1921.9L3129.2 1881.3L3142.7 1862.4L3161.6 1851.6ZM4172.2 2394.9L4361.4 2394.9L4655.9 2405.7L4715.4 2451.7L4753.2 2489.5L4785.6 2532.8L4804.6 2581.4L4799.1 2630.1L4772.1 2667.9L4726.2 2692.3L4680.2 2695.0L4658.6 2686.9L4645.1 2673.3L4637.0 2651.7L4637.0 2608.5L4653.2 2530.1L4666.7 2494.9L4664.0 2486.8L4650.5 2481.4L4639.7 2562.5L4623.5 2622.0L4607.3 2657.1L4585.7 2681.5L4564.1 2692.3L4537.0 2692.3L4518.1 2684.2L4496.5 2657.1L4488.4 2624.7L4491.1 2538.2L4510.0 2459.8L4510.0 2454.4L4491.1 2446.3L4483.0 2530.1L4464.1 2597.7L4442.5 2643.6L4410.0 2676.1L4372.2 2676.1L4347.9 2651.7L4329.0 2595.0L4318.2 2451.7L4293.8 2446.3L4296.5 2516.6L4291.1 2565.2L4272.2 2616.6L4256.0 2635.5L4234.4 2646.3L4204.7 2646.3L4172.2 2624.7L4145.2 2559.8L4134.4 2473.3L4129.0 2576.0L4112.8 2651.7L4102.0 2673.3L4085.8 2689.6L4075.0 2695.0L4039.8 2692.3L4015.5 2673.3L3991.2 2630.1L3972.3 2567.9L3961.5 2489.5L4056.0 2438.2ZM351.3 2443.6L532.3 2451.7L740.4 2481.4L878.2 2513.9L894.4 2543.6L899.8 2603.1L889.0 2649.0L810.7 2805.8L767.4 2878.8L743.1 2911.2L643.1 3005.8L594.5 3038.3L524.2 3068.0L470.2 3078.8L370.2 3076.1L310.8 3057.2L245.9 3016.6L194.6 2968.0L145.9 2903.1L102.7 2822.0L62.2 2711.2L29.7 2557.1L67.6 2511.2L113.5 2484.1L178.3 2462.5L259.4 2449.0ZM1559.2 2443.6L1651.1 2446.3L1732.1 2459.8L1834.8 2489.5L1951.0 2540.9L2083.4 2624.7L2196.9 2711.2L2272.6 2781.5L2283.4 2800.4L2280.7 2816.6L2202.3 2876.1L2121.2 2919.3L2015.9 2957.2L1907.8 2978.8L1751.0 2986.9L1621.3 2978.8L1564.6 2959.9L1491.6 2924.7L1394.3 2859.9L1353.8 2822.0L1321.4 2781.5L1299.8 2743.6L1286.3 2705.8L1280.9 2638.2L1291.7 2595.0L1307.9 2562.5L1361.9 2505.8L1413.3 2476.0L1459.2 2459.8ZM572.9 2492.2L451.3 2505.8L356.7 2743.6L351.3 2740.9L264.8 2500.4L178.3 2522.0L145.9 2524.7L70.3 2562.5L118.9 2781.5L156.7 2843.6L172.9 2889.6L178.3 2889.6L202.7 2803.1L251.3 2684.2L332.4 3008.5L348.6 3008.5L354.0 2781.5L462.1 3019.3L470.2 3032.9L475.6 3032.9L483.7 3030.2L486.4 3022.0L526.9 2749.0L613.4 2970.7L618.8 2970.7L670.2 2916.6L764.7 2789.6L843.1 2662.5L859.3 2611.2L853.9 2549.0L789.0 2535.5L645.8 2819.3L581.0 2503.1L578.3 2492.2ZM3088.6 2494.9L3218.3 2494.9L3310.2 2516.6L3399.4 2562.5L3467.0 2627.4L3502.1 2697.7L3510.2 2738.2L3510.2 2781.5L3502.1 2824.7L3485.9 2854.5L3456.1 2892.3L3426.4 2919.3L3350.8 2965.3L3277.8 2992.3L3180.5 3011.2L3061.6 3013.9L2980.6 3003.1L2883.3 2973.4L2802.2 2927.4L2748.2 2876.1L2710.3 2813.9L2691.4 2738.2L2691.4 2686.9L2699.5 2649.0L2726.5 2600.4L2780.6 2554.4L2842.7 2527.4L2964.3 2503.1ZM1497.0 2524.7L1416.0 2546.3L1378.1 2576.0L1353.8 2619.3L1351.1 2681.5L1359.2 2730.1L1378.1 2792.3L1397.0 2819.3L1405.2 2819.3L1418.7 2792.3L1434.9 2678.8L1443.0 2662.5L1451.1 2665.2L1491.6 2849.0L1505.1 2881.5L1515.9 2892.3L1534.9 2889.6L1551.1 2873.4L1578.1 2824.7L1594.3 2778.8L1607.8 2762.5L1632.1 2749.0L1645.7 2757.1L1656.5 2792.3L1664.6 2922.0L1672.7 2951.8L1691.6 2932.8L1751.0 2805.8L1764.6 2795.0L1786.2 2797.7L1797.0 2811.2L1815.9 2927.4L1829.4 2941.0L1853.7 2941.0L1899.7 2927.4L2018.6 2908.5L2126.6 2881.5L2199.6 2851.8L2221.2 2835.5L2229.3 2822.0L2226.6 2800.4L2196.9 2770.7L2148.3 2738.2L2091.5 2716.6L2029.4 2719.3L1994.2 2740.9L1967.2 2770.7L1934.8 2786.9L1891.6 2786.9L1853.7 2770.7L1805.1 2730.1L1799.7 2716.6L1872.6 2584.1L1856.4 2565.2L1786.2 2543.6L1761.8 2543.6L1740.2 2562.5L1740.2 2665.2L1734.8 2686.9L1710.5 2703.1L1683.5 2703.1L1656.5 2695.0L1618.6 2673.3L1591.6 2643.6L1578.1 2613.9L1572.7 2567.9L1561.9 2540.9L1534.9 2524.7ZM3104.9 2551.7L3077.8 2565.2L3083.2 2630.1L3061.6 2695.0L3056.2 2695.0L3053.5 2686.9L3042.7 2624.7L3021.1 2570.6L2999.5 2554.4L2980.6 2554.4L2961.6 2562.5L2986.0 2632.8L2991.4 2703.1L2975.1 2751.7L2956.2 2770.7L2942.7 2776.1L2902.2 2776.1L2859.0 2751.7L2810.3 2692.3L2780.6 2616.6L2761.7 2630.1L2737.4 2676.1L2734.6 2711.2L2740.1 2743.6L2788.7 2857.2L2815.7 2886.9L2856.2 2911.2L3007.6 2951.8L3015.7 2895.0L3042.7 2846.3L3064.3 2824.7L3094.0 2808.5L3137.3 2803.1L3164.3 2813.9L3185.9 2838.2L3196.7 2876.1L3191.3 2954.5L3207.5 2965.3L3226.5 2965.3L3221.0 2919.3L3223.8 2876.1L3237.3 2813.9L3264.3 2768.0L3288.6 2749.0L3307.5 2743.6L3342.6 2746.3L3391.3 2770.7L3421.0 2800.4L3437.2 2830.1L3439.9 2873.4L3467.0 2830.1L3475.1 2803.1L3475.1 2732.8L3453.4 2670.6L3426.4 2630.1L3396.7 2600.4L3348.1 2576.0L3307.5 2578.7L3302.1 2584.1L3302.1 2630.1L3288.6 2676.1L3272.4 2695.0L3258.9 2697.7L3264.3 2670.6L3261.6 2635.5L3248.1 2605.8L3231.9 2589.6L3161.6 2557.1ZM3072.4 3268.0L3148.1 3270.7L3218.3 3286.9L3326.4 3332.9L3380.5 3368.0L3431.8 3419.4L3469.7 3484.3L3480.5 3524.8L3477.8 3581.6L3456.1 3635.6L3421.0 3687.0L3361.6 3741.1L3280.5 3787.0L3204.8 3814.0L3080.5 3838.4L2942.7 3843.8L2915.7 3838.4L2880.6 3814.0L2877.9 3778.9L2913.0 3687.0L2934.6 3643.8L2950.8 3624.8L2958.9 3627.5L2961.6 3676.2L2975.1 3711.3L2999.5 3733.0L3013.0 3735.7L3056.2 3689.7L3077.8 3627.5L3094.0 3649.2L3113.0 3697.8L3126.5 3703.2L3169.7 3643.8L3212.9 3546.4L3223.8 3546.4L3234.6 3560.0L3277.8 3668.1L3307.5 3697.8L3339.9 3695.1L3367.0 3676.2L3394.0 3641.1L3412.9 3600.5L3421.0 3535.6L3402.1 3473.5L3380.5 3441.0L3350.8 3411.3L3296.7 3381.6L3264.3 3381.6L3245.4 3395.1L3167.0 3524.8L3153.5 3532.9L3150.8 3400.5L3123.8 3349.1L3113.0 3349.1L3104.9 3357.2L3072.4 3438.3L3067.0 3465.4L3067.0 3527.5L3072.4 3557.3L3064.3 3557.3L3034.6 3522.1L3007.6 3457.2L3002.2 3430.2L3002.2 3338.3L3010.3 3303.2L3029.2 3278.8ZM1699.7 3281.5L1772.7 3281.5L1932.1 3314.0L1972.6 3338.3L1994.2 3359.9L2021.3 3400.5L2040.2 3446.4L2051.0 3500.5L2048.3 3627.5L2024.0 3733.0L2007.8 3760.0L1978.0 3787.0L1926.7 3811.3L1842.9 3833.0L1783.5 3841.1L1683.5 3838.4L1624.0 3822.2L1556.5 3787.0L1480.8 3719.4L1461.9 3692.4L1443.0 3643.8L1440.3 3587.0L1472.7 3454.5L1499.7 3392.4L1540.3 3346.4L1575.4 3322.1L1637.5 3295.1ZM4212.8 3281.5L4401.9 3281.5L4539.7 3292.4L4696.5 3316.7L4737.0 3327.5L4761.3 3341.0L4769.4 3368.0L4769.4 3408.6L4758.6 3432.9L4731.6 3457.2L4650.5 3489.7L4601.9 3516.7L4537.0 3584.3L4534.3 3608.6L4539.7 3627.5L4588.4 3697.8L4607.3 3735.7L4610.0 3781.6L4599.2 3803.2L4512.7 3819.5L4388.4 3827.6L4229.0 3824.9L4196.6 3819.5L4180.3 3805.9L4156.0 3765.4L4145.2 3730.3L4147.9 3678.9L4180.3 3595.1L4174.9 3554.6L4156.0 3524.8L4115.5 3487.0L4010.1 3419.4L3991.2 3381.6L3991.2 3359.9L4007.4 3332.9L4050.6 3308.6L4131.7 3289.6ZM816.1 3300.5L856.6 3300.5L872.8 3305.9L910.6 3341.0L926.9 3376.1L935.0 3414.0L935.0 3511.3L913.4 3630.2L894.4 3689.7L867.4 3749.2L808.0 3827.6L786.3 3843.8L751.2 3857.3L689.1 3857.3L637.7 3838.4L605.3 3811.3L591.8 3773.5L548.6 3792.4L508.0 3792.4L451.3 3773.5L367.5 3716.7L356.7 3695.1L362.1 3662.7L332.4 3673.5L289.1 3673.5L251.3 3657.3L235.1 3632.9L216.2 3641.1L183.8 3641.1L124.3 3622.1L86.5 3603.2L43.2 3568.1L13.5 3522.1L2.7 3487.0L0.0 3446.4L8.1 3411.3L32.4 3376.1L64.9 3359.9L448.6 3368.0L486.4 3370.7L508.0 3381.6L526.9 3378.9L543.1 3365.3L578.3 3357.2L694.5 3343.7L753.9 3343.7L775.5 3316.7ZM4147.9 3327.5L4123.6 3338.3L4083.1 3368.0L4069.5 3395.1L4083.1 3416.7L4174.9 3476.2L4207.4 3508.6L4223.6 3538.3L4229.0 3576.2L4196.6 3708.6L4196.6 3749.2L4202.0 3760.0L4229.0 3776.2L4250.6 3773.5L4269.5 3751.9L4291.1 3703.2L4304.6 3689.7L4323.6 3684.3L4337.1 3692.4L4342.5 3708.6L4347.9 3781.6L4356.0 3789.7L4374.9 3789.7L4393.8 3781.6L4404.6 3765.4L4401.9 3700.5L4407.3 3689.7L4415.4 3684.3L4437.0 3684.3L4450.6 3705.9L4450.6 3762.7L4461.4 3778.9L4496.5 3781.6L4539.7 3768.1L4553.2 3754.6L4555.9 3733.0L4499.2 3619.4L4496.5 3573.5L4504.6 3549.1L4534.3 3511.3L4588.4 3473.5L4666.7 3438.3L4707.3 3427.5L4720.8 3403.2L4723.5 3376.1L4718.1 3365.3L4691.1 3351.8L4661.3 3346.4L4542.4 3338.3L4526.2 3359.9L4528.9 3419.4L4515.4 3476.2L4496.5 3503.2L4474.9 3511.3L4464.1 3508.6L4447.9 3492.4L4437.0 3465.4L4428.9 3362.6L4410.0 3349.1L4320.9 3351.8L4296.5 3362.6L4285.7 3376.1L4274.9 3454.5L4258.7 3495.1L4245.2 3505.9L4226.3 3505.9L4207.4 3487.0L4196.6 3457.2L4180.3 3343.7L4166.8 3327.5ZM1629.4 3357.2L1591.6 3370.7L1559.2 3400.5L1529.5 3459.9L1505.1 3549.1L1497.0 3614.0L1507.8 3660.0L1529.5 3692.4L1556.5 3711.3L1575.4 3711.3L1597.0 3692.4L1621.3 3657.3L1629.4 3651.9L1651.1 3654.6L1664.6 3687.0L1661.9 3760.0L1678.1 3781.6L1715.9 3792.4L1799.7 3789.7L1845.6 3773.5L1856.4 3757.3L1853.7 3678.9L1869.9 3660.0L1891.6 3665.4L1934.8 3719.4L1945.6 3724.8L1959.1 3722.1L1978.0 3692.4L1988.8 3646.5L1994.2 3600.5L1994.2 3500.5L1975.3 3430.2L1948.3 3387.0L1913.2 3362.6L1897.0 3365.3L1888.9 3373.4L1875.3 3408.6L1856.4 3514.0L1840.2 3551.8L1821.3 3576.2L1805.1 3587.0L1759.1 3592.4L1726.7 3578.9L1697.0 3543.7L1680.8 3495.1L1661.9 3387.0L1645.7 3362.6ZM826.9 3359.9L810.7 3368.0L821.5 3416.7L821.5 3446.4L794.5 3576.2L767.4 3657.3L737.7 3678.9L718.8 3676.2L702.6 3662.7L691.8 3627.5L691.8 3478.9L699.9 3403.2L608.0 3414.0L608.0 3457.2L586.4 3516.7L556.7 3557.3L535.0 3565.4L508.0 3557.3L494.5 3541.0L472.9 3481.6L464.8 3430.2L75.7 3419.4L59.4 3443.7L59.4 3468.1L78.4 3516.7L91.9 3532.9L143.2 3565.4L191.9 3581.6L213.5 3578.9L262.1 3522.1L281.0 3514.0L299.9 3516.7L313.5 3530.2L316.2 3557.3L291.8 3611.3L324.3 3614.0L372.9 3589.7L399.9 3589.7L410.7 3595.1L427.0 3619.4L427.0 3660.0L418.8 3681.6L502.6 3730.3L540.4 3733.0L554.0 3727.5L545.8 3668.1L554.0 3643.8L564.8 3632.9L586.4 3624.8L624.2 3630.2L648.5 3646.5L662.0 3673.5L662.0 3708.6L651.2 3743.8L651.2 3768.1L656.6 3778.9L697.2 3797.8L726.9 3800.5L759.3 3789.7L802.6 3741.1L832.3 3684.3L859.3 3600.5L875.5 3511.3L875.5 3419.4L856.6 3368.0L845.8 3359.9Z"/>
</svg>
