<?xml version="1.0" encoding="UTF-8"?>
<svg xmlns="http://www.w3.org/2000/svg" viewBox="0 0 1261.04 986.59">
  <defs>
    <style>
      .cls-1 {
        fill: none;
        stroke: red;
        stroke-width: 28.8px;
      }

      .cls-1, .cls-2 {
        stroke-miterlimit: 10;
      }

      .cls-3, .cls-2 {
        fill: #fff;
      }

      .cls-4 {
        fill: red;
      }

      .cls-2 {
        stroke: #fff;
        stroke-width: 3.96px;
      }
    </style>
  </defs>
  <g id="Capa_28" data-name="Capa 28">
    <g>
      <path class="cls-3" d="M222.8,960.99h-8.64c-3.43-2.83-8.54-2.98-12.82-4.94-7.04-3.22-12.76-8.23-14.07-16.18-13.25,7.38-25.37,3.68-37.71-3.07-8.61-4.71-21.92-12.29-17.95-23.8-10.41,4.61-23.29,3.85-29.45-6.79-27.51,5.92-63.89-20.68-55.51-50.82,2.11-7.6,7.26-14.12,15.46-15.25,11.74-1.62,24.67.65,36.35.91,17.79.4,37.18-.36,54.79.88,4.7.33,12.91,3.31,16.29,3,2.77-.25,6.04-3.24,9.29-4.22,13.34-4.02,33.12-3.73,47.13-4.48,9.11-13.66,28.92-14.78,37.93-.32,16.4,26.3-2.13,106.42-31.46,120.79-3.29,1.61-7.38,1.61-9.63,4.28ZM200.4,908.53c11.97,12.02-8.44,28.37,8.45,35.22,12.91,5.24,20.02-.26,27.21-10.29,13.44-18.74,22.2-56.5,19.13-79.23-1.02-7.52-5.65-18.92-14.65-12.3,3.68,17.74-.62,35.93-5.53,53.05-1.45,5.05-4.32,16.41-8.38,19.45-8.6,6.42-14.32-2.41-15.22-10.65-1.82-16.69.52-36.41,1.79-53.14l-22.08,2.88c1.83,3.37.53,7.24-.28,10.74-1.63,7.01-8.22,24.21-16.52,24.82-15.55,1.14-15.2-31.17-19.31-32.56l-89.18-2.1c-10.73,2.87-5.24,18.14-.43,24.52,4.47,5.92,19.16,13.59,26.44,13.94,10.43.5,13.94-19.7,25.37-14.87,10.23,4.32-2.79,21.63-1.9,22.52,10.12,4.12,17.88-9.85,27.75-4.22,6.98,3.98,5.33,14.99,3.03,21.39,10.33,5.51,19.76,14.93,32.52,10.63,1.4-1.61-7.48-18.01,3.98-23.36,5.49-2.56,13.66-.59,17.81,3.58Z"/>
      <path class="cls-3" d="M1087.58,33.87l69.59,10.55,35.34,2.09c3.61,1.23,16.83,33.11,19.83,38.23v6.72c-4.4,4.58-7.84,3.2-12.47,0-1.1,8.68-1.72,19.57-13.71,17.06-20.62-4.32-3.56-34.39-17.01-43.93-4.43,18.67-2.26,37.82-2.41,56.62l-22.36-21.79c-1.54-10.88,1.41-24.77-.25-35.26-.35-2.18-1.68-4.44-3.77-5.33l-3.85,35.51h-31.67l-2.7-40.9c-.13-2.21-8.26-3.79-8.81-3.25l-.96,56.63-28.8-.96-1.92-49.91c-.45-.49-7.21.95-6.67,3.26l4.62,47.46-29.62,3.98v-62.38l55.67-14.4h1.92Z"/>
      <path class="cls-3" d="M416.49,620.57c58.79-4.64,123.72,33.3,165.29,72.16,6.14,5.74,15.87,11.98,8.13,19.67-18.67,18.58-62.55,33.34-88.41,36.36-45.98,5.38-81.77,2.4-118.87-26.78-53.48-42.06-30.82-96.32,33.85-101.42ZM482.19,738.09c.79.86,4.13,2.1,5.54,1.77,25.24-6.88,53.46-8.13,77.7-18.34,11.91-5.01,20.93-10.22,8.15-21.55-10.83-9.59-29.43-18.67-43.69-12.07-7.24,3.35-11.51,12.24-19.32,14.27-13.09,3.4-26.16-5.62-33.29-15.98,1.97-4.93,17.84-29.34,17.01-32.59-1.16-4.57-22.43-10.28-26.8-8.89-13.47,4.28,5,37-13.9,38-9.75.51-23.25-8.03-27.49-16.66-5.33-10.87-.22-27.51-18.51-26.57-4.06.21-11.58,2.31-15.65,3.59-26.9,8.49-25.07,30.91-17.98,54,.88,2.86,4.17,13.53,7.69,13.24,4.75-.39,6.9-29.23,8.45-34.54,1.67-5.7,3.79-1.33,4.98,2.09,3.88,11.18,4.29,25.4,7.89,37.22,3.05,10.03,5.72,18.74,15.05,6.86,5.23-6.67,9.95-30.42,21.04-27.81,5.48,1.29,4.95,41.67,7.37,48.04,2.8,2.09,18.12-32.16,19.32-34.89,4.01-4.28,9.23-3.43,10.9,2.25,1.58,5.38,3.05,25.89,5.52,28.57Z"/>
      <path class="cls-3" d="M187.09,43.75c44.28-1.46,77.76,16.52,74.09,65.45-6.61,88.09-137.73,53.86-185.73,22.59-15.38-10.02-24.4-21.1-10.55-38.42,23.88-29.85,85.16-48.39,122.19-49.61ZM186.04,89.24c-2.88,2.66-7.39,2.89-9.73-.72-4.92-7.56,4.92-41.27-10.46-37.42-6.52,8.52,5.08,24.2-5.69,30.98-7.96,5-17.28-.42-22.79-6.44-2.22-2.43-8.38-14.13-11.76-6.97-2.82,5.98,7.33,14.15.45,25.38-4.28,6.99-12.84,7.8-17.9,1.19-1.91-2.5-7.91-17.8-12.92-10.88-3.45,4.76-.72,8.97-8.27,14.75s-14.95,2.8-19.65,9.13c.89,4.19,15.74-1.01,18.83-1.3,6.11-.57,16.02.46,18.18,7.5s-1.75,23.86,11.25,20.99,18.44-40.18,25.67-43.48c.76-.35,1.45-.69,2.33-.53,16.98,7.59,5.69,57.33,25.94,59.62,22.21,2.51-1.44-37.33,13.5-43.27,3.41-.35,7.34,4.38,9.57,6.73,5.48,5.75,20.19,27.83,26.1,29.56,15.07,4.4,27.92-21.7,29.06-33.88.66-7.14.65-32.94-12.23-23.74-6.53,4.67-24.46,40.76-31.44,19.45-5.04-15.38,2.39-34.89,2.46-50.45.05-10.62-10.04,4.88-11.45,7.84-2.87,6.03-5.8,22.97-9.05,25.98Z"/>
      <path class="cls-3" d="M257.12,637.8c3.32,3.08,4.4,16.68,3.95,21.24-1.37,14.08-27.57,61.37-37.34,73.03-59.05,70.46-130.08,45.77-159.06-34.77-3.89-10.82-11.88-37.03-11.84-47.76.02-4.87,5.52-9.94,9.22-12.93,34.04-27.48,132.19-13.81,173.4-4.52,3.21.72,20.47,4.59,21.66,5.7ZM201.68,709.54l-18.18-77.34-29.7,2.59-23.62,57.47-21.66-58.52c-15.83,4.69-32.62,5.12-45.91,15.98l11.12,50.05c4.34,8.97,10.54,17.16,12.79,27.05l2-1.35,17.18-47.59,19.34,77.6,3.7.14,1.44-54.71,27.26,59.89,3.44.61,11.07-67.21,21.58,52.76c13.6-14.93,26.35-30.92,37.73-47.67,10.11-14.87,25.26-35.34,18.25-53.9l-13.79-2.69-1.39,1.05-32.66,65.8Z"/>
      <path class="cls-3" d="M208.21,440.13c41.2-2.88,78.91,4.11,52.19,54.11-28.89,54.06-88.29,81.17-148.49,77.13-80.92-5.43-51.6-80.3-1.08-106.73,23.02-12.05,71.29-22.69,97.39-24.51ZM84.59,555.01c-5.51-24.31,24.71-48.45,45.99-31.1,10.63,8.66,17.05,24.21,15.83,37.78l1.06,1.97,8.8-5.25c-2.91-7.55-9.67-31.2-.94-35.81,5.57-2.94,24.98-4.16,31.02-2.63,2.68.68,6.14,3.31,8.16,5.28,2.46,2.39,10.3,15.48,12.02,15.02,20.9-14.42,38.87-33.06,47.23-57.44,1.69-4.93,5.54-15.28,4.01-19.88-.71-2.13-6.16-11.47-9.11-9.22-.87.66-4.56,17.42-5.93,20.94-6.31,16.1-19.26,33.82-38.81,24.86-14.06-6.44-7.44-27.26-7-38.99.08-1.98.62-7.56-1.55-8.08l-61.83,12.36c.21,2.88,2.57,4.71,3.62,7.41,9.59,24.41-12.17,25.82-27.65,15.17l-5.19-7.18c-19.31,12.78-48.29,47.31-27.46,69.58.82.88,6.97,5.97,7.72,5.23Z"/>
      <path class="cls-3" d="M803.28,632.08c20.58.12,41.19,5.13,58.1,17.15,24.55,17.46,36.82,50.52,15.53,75.67-41.33,48.82-169.27,43.96-184.3-26.87-13.54-63.78,67.39-66.21,110.67-65.95ZM827.48,680.74c2.34-11.77.52-20.64-9.92-27.03-9.02-5.52-23.03-10.2-33.14-5.46.92,11.48,1.89,22.69-5.42,32.49-4.11-11.85-3.45-39.18-22.55-32.62,4.58,12.72,13.84,45.15-3.83,51.34-19.83,6.94-35.13-22.15-40.81-36.95-6.43,3.68-10.24,13.39-10.13,20.65.14,9.86,11.09,35.63,18.29,42.24,12.24,11.24,32.21,10.62,47.05,16.77-.57-14.27,10.16-33.82,25.55-35.4,21.12-2.16,21.09,20.6,18.73,35.71.7,2.37,8.88,4.23,8.47,1.2-1.93-14.34-1.2-40.96,13.55-48.95,15.78-8.55,39.5,9.83,37.38,27.29,11.17-11.33,10.69-29.63,4.65-43.53-5.86-13.51-20.76-30.76-37.19-25.47-.22,8.76-.01,25.48-10.66,27.73Z"/>
      <path class="cls-3" d="M468.31,444.93c47.02-2.46,127.01,3.39,88.31,71.99-28.51,50.54-116.32,58.54-158.63,22.71-26-22.02-25.78-62.26,3.01-81.39,13.95-9.27,50.06-12.41,67.31-13.32ZM512.67,453.29c.7,12.16,1.74,40.27-14.98,42.16-19.12,2.16-13.79-26.02-18.14-36.4-1.24-2.97-6.13-7.56-9.18-5.36-4.52,3.27,7.96,36.19-9.31,42.53-15,5.5-20.57-5.9-23.58-18.15-1.78-7.26-.9-25.24-12.24-18.41.76,9.43,10.17,25.71,3.39,33.89-8.15,9.85-20.21-6.26-27.28-8.14-17.89-4.77-19.36,14.81-13.35,26.78,2.43,4.84,5.53,5.13,10.93,5.39,12.16.58,26.66-10.22,28.29,9.14.54,6.43-3.07,13.96-2.45,17.8.76,4.74,8.3,8.6,11.56,4.71,6.32-7.55-9.84-39.28,13.39-36.35,11.39,1.44,20.06,11.55,22.94,22.16,1.99,7.35-.99,22.4,10.83,17.19,3.86-1.7,6.41-15.47,6.99-19.88.95-7.26-2.19-17.47,6.82-21.01,9.82-3.86,21.1,2.73,26.89,10.57,3.22,4.35,3.63,12.07,10.84,9.88.93-.28,3.66-2.83,4.02-3.67,3.24-7.6-10.29-12.67-7.7-24.99,2.76-13.15,15.58-6.55,21.63.05,2.49-9.49,3.25-21.59-.25-30.93-6.13-16.32-8.95,2.64-15.04,4.58-4.48,1.43-15.91-.74-17.12-6.01-1.51-6.58,3.07-16.93-7.88-17.55Z"/>
      <path class="cls-3" d="M1076.07,642.84c-1.03,11.12-6.83,28.88-21.16,25.97-13.04-2.65-14.92-22.86-16.55-33.37-.17-1.13-.24-4.66-1.63-4.59.04,12.25-.03,40.39-11.05,47.98s-19.2-6.08-22.73-14.7c-4.06-9.91-5.89-21.71-7.08-32.32,17.04-10.56,36.04-19.97,55.84-23.88l110.02,2.99c15.32,10.57,45.41,35.21,33.88,56.44-5.59,10.29-25.02,18.65-34.37,9.58-8.41-8.15,1.11-35.98,4.1-46.09l-4.8-.97c-.45,13.79-4.96,49.99-23.52,49.98-22.62,0-13.48-41.94-10.08-55.25-.17-1.73-1.91-3.66-3.84-3.37-.95,14.9-4.02,34.98-12.46,47.53s-18.73,10.29-23.8-3.12-5.05-29.19-4.96-42.86l-5.82-1.55c-.47,6.99.64,14.7,0,21.59Z"/>
      <path class="cls-3" d="M146.78,240.5c20.66-1.22,77.9-3.07,95.44,2.86,10.11,3.42,15.39,8.14,15.21,19.41-.45,29.7-50.02,60.72-72.72,76.13-39.31,26.68-79.35,32.59-112.57-7.05-47.6-56.8,26.52-88.5,74.64-91.35ZM174.58,251c-2.16-2.16-14.43-1.22-16.58.72-7.42,11.99-13.26,25.97-20.81,37.74-1.37,2.13-4.27,7.4-6.49,7.96l-26.58-35.93c-18.74,10.04-43.51,24.26-32.19,49.44,1.04,2.32,10.88,19.26,11.96,20.18,5.28,4.44,12.69-5.6,17.09-8.75,6.61-4.72,14.94-9.5,23.37-8.18,12.97,2.04,16.69,27.06,28.6,25.67,23.53-13.58,80.34-34.88,91.44-60.29,1.88-4.31,3.64-15.23.5-18.74-1.35-1.51-21.2-9.89-22.6-9.73l-66.67,68.78c7.06-22.22,24.56-44.39,18.96-68.87Z"/>
      <path class="cls-3" d="M455.84,821.16c14.17-1.18,51.53,4.8,62.5,13.71,23.06,18.74,22.77,62.52,14.77,88.51-7.31,23.75-35.45,29.68-57.41,31.85-38.98,3.86-91.69-20.44-83.69-66.41,6.64-38.13,21.96-64.16,63.83-67.66ZM413.19,920.34c13.7,13.3,16.36-9.1,24.19-10.25,11.1-1.62,5.32,21.7,7.86,27.62,3.9,9.08,36.65,7.15,42.97,1.22s-1.3-18.32,3.33-24.5c7.33-9.78,14.71,12.54,21.6,12.9,5.77.02,7.99-12.58,8.82-17.03,3.53-18.95,4.45-44.68-7.54-60.95-6.62-8.99-14.3-13.19-18.37.49-4.56,15.31-3.44,48.93-28.04,45.91-20.19-2.48-19.29-33-23.76-47.25-3.46-11.03-9.56-10.79-18.28-4.43s-11.67,15.58-14.77,25.54c-4.9,15.74-11.58,37.55,1.99,50.73Z"/>
      <path class="cls-3" d="M1009.18,856.08c-1.32-1.18-5.15-7.52-5.6-9.26-2.09-8.05,1.57-12.25,8.06-15.99,29.61-17.08,125.39-9.02,159.63-1.02,11.1,2.59,18.83,2.7,19.04,16.54.3,19.99-27.06,21.67-39.31,30.73-3.21,2.38-16.02,14.51-16.89,17.66-3.75,13.74,19.68,28.01,17.7,44.57-1.08,9.04-8.18,8.89-15.89,10.04-21.89,3.26-56.78,4.96-78.47,1.94-2.04-.28-5.7-1.08-7.26-2.34-4.33-3.5-10.44-18.37-10.63-24-.58-17.47,17.61-26.21,2.88-45.03-9.27-11.85-23.94-15.54-33.27-23.84ZM1085.44,918.99c4.6,4.79-2.39,30.73,12.43,23.01,9.12-4.75-.92-22.53,8.47-24.2,10.07-1.79,5.86,14.39,7.35,19.47,2.35,8.01,21.68,2.49,24.27-3.19,3.02-6.6-14.2-26.95-13.99-38.84.29-16.32,20.88-27.64,33.98-33.28,5.92-2.55,17.03-3.73,19.19-9.6,4.36-11.84-2.36-13.42-12.44-15.05-4.65-.76-27.17-2.97-30.1-1.57-4.61,2.19-2.48,15.52-2.89,20.14-2.11,23.77-20.63,28.82-23,1.92-.98-11.11,4.45-19.28-10.11-20.6-7.79-.71-22.06-.23-25.16,8.39-2.5,6.95-1.09,30.15-12.28,29.88-6.38-.16-8.86-12.96-9.77-17.93-2.57-14.02,1.12-33.81-19.22-20.58-8.08,5.26-14.43,10.1-4.97,17.9,10.05,8.29,29.09,15.76,32.13,30.26,2.66,12.7-9.35,32.91-7.2,46.55,1,6.32,10.19,11.08,15.31,5.56,2.76-2.97,10.6-25.95,18-18.23Z"/>
      <path class="cls-3" d="M801.56,851.1c-.51-3.57-4.59-12.38-8.17-13.64-2.2.31-7.9,13.95-8.88,16.75-4.19,11.9-3.14,21.54-2.62,33.83-8.08-5.84-13.43-18.08-15.41-27.78-1.66-8.12-1.35-19.02-.32-27.3,2.75-22.22,34.88-14.9,49.8-10.66,50.79,14.44,92.3,61,40.82,105.12-22.63,19.4-82.61,35.57-110.88,27.33-13.03-3.8-11.3-10.18-7.69-21.13,1.43-4.33,12.43-30.13,15.85-30.2,2.53,4.57,1.33,10.72,3.15,16.03,1.14,3.34,6.57,10.91,10.32,10.81,8.93-5.73,14.08-15.6,15.83-25.89,2.24-.49,1.54.3,2.14,1.23,2.2,3.4,6.03,18.82,11.13,15.86.7-.41,8.01-11.87,8.96-13.58,1.77-3.15,9.47-22.55,10.95-22.79,2.13-.34,4.06,1.94,5.06,3.57,6.96,11.36,11.98,48.99,33.27,25.3,11.37-12.65,14.26-30.77,6.75-46.12-5.04-10.29-24.47-29.68-36.26-20.14l-20.83,32.98-2.93.63c-.95-9.39,1.28-21.16,0-30.23Z"/>
      <path class="cls-3" d="M1134.13,291.09c-1.37-.84-1.32-1.91-1.49-3.31-1.53-13.04,2.32-27.87,1.05-41.16l-7.72-1.6-.95,24.96c-9.37.22-30.11-2.88-32.42-14.14-.54-2.61-.26-5.75-.23-8.45.04-3.48,2.28-3.48-3.83-5.24-1.28,6.03-1.95,12.24-3.36,18.24-2.05,8.75-2.28,15.68-13.45,15.42-16.66-.39-10.04-21.46-6.28-31.28-.18-2.2-7.75-1.29-9.57-1.43-.25,6.64-1.4,12.92-.94,19.67.4,5.88,6.42,24.83,5.6,27.64-1.27,4.4-7.23,3.74-10.47,2.17-9.61-4.65-5.71-20.26-6.66-28.84-.81-7.24-3.97-8.72-10.88-6.31-2.96,1.87-1.33,10.88-.58,13.93,1.35,5.5,10.42,19.84,10.42,22.13,0,2.57-4.02,7.82-6.28,8.99-6.62,3.41-13.56-2.12-17.61-7.09-25.89-31.84,24.83-61.73,52.25-63.83,29.73-2.28,93.88,2.67,121.27,14.13,12.67,5.31,17.44,26.43,14.11,38.69-2.03,7.49-4.08,8.83-12.01,5.28-10.51-4.7-5.51-22.03-6.94-31.45s-12.43-9.7-12.86-.09c-.61,13.81,17.26,42.86-13.69,33.84l-1.01-43.42c-1.46-1.98-3.9-1.11-5.8-.63v43.19h-19.68Z"/>
      <path class="cls-3" d="M844.77,65.55l-16.95,40.08c-8.48,6.67-12.04-2.37-14.26-9.37-3.86-12.21-4.8-25.75-7.3-38.28l-11.26.06c-4.4,10.72-8.46,21.62-11.93,32.69-3.89,12.41-6.91,31.92-12.04,42.67-4.16,8.71-10.81,9.9-16.91,2.15-6.79-8.62-15.81-38.2-19.26-49.84-1.49-5.04-8.7-29.9-8.21-33.09.08-.54.13-1.06.46-1.53,1.25-1.76,15.97-.7,19.31-.86,29.27-1.34,59.01-2.03,88.3-3.84,11.48-.71,23.07-3.26,34.52-3.87,4.42-.24,14.32-.72,18.2.02,2.54.48,4.3,3.19,5.11,5.4.43,4.66-9.35,8.25-12.74,10.91-4.83,3.79-8.68,9.12-11.23,14.68-1.95,4.25-3.63,14.43-7.75,16.24-12.14,5.33-11.19-19.02-16.06-24.22Z"/>
      <path class="cls-3" d="M568.33,241.18l-86.37,88.3,7.67-66.22-15.23-.83-26.52,65.12-43.66-67.66c0-1.08,4.75-2.24,5.97-2.65,7.34-2.46,50.67-16.07,54.96-16.07h103.18Z"/>
      <path class="cls-3" d="M539.34,103.72c-1.7.99-26.72-3.52-29.99-4.63-.96-.33-1.93-.25-2.39-1.46l13.96-38.78-.54-2.46-43.7-4.32c-2.01-.18-1.26.14-1.46,1.45-1.07,7.06,2.72,47.71.97,49.46l-50.16-4.07c-1.66-.6-3.4-2.79-4.39-4.25-3.09-4.53-19.02-42.44-18.25-45.71,2.26-2.72,7.55-7.96,10.84-8.41l131.12,3.36c1.46.45,21.01,16.22,23,18.27.73.75,2.05,1.5,1.82,2.76l-30.83,38.8Z"/>
      <path class="cls-2" d="M1035.76,431.21c2.81,14.1,4.25,29.87.27,43.94-2.13,7.52-4.64,12.54-9.89,3.6-2.74-4.67-9.94-27.81-9.65-32.67.08-1.31.5-1.9.97-2.95s11.31-16.03,12.11-16.68c1.37-1.11,3.33-1.44,5.02-1.7,13.34-2.04,33.36-3.46,46.81-3.18,24.02.5,53.57,2.59,77.58,4.96,7.36.73,12.46,3.75,18.86,7.05s28.31,16.18,30.27,22.52c2.3,7.46-1.92,29.31-12.37,25.82-5.3-1.77-6.27-34.06-6.51-40.05l-15.24-5.86,5.76,43.19-21.13.96-3.06-44.45-15.17-6.42.95,50.86-24.94-3.85-2.06-46.41-10.42-3.48c-.31,11.34.39,22.77.03,34.11-.07,2.27-.93,4.37-1.04,6.64-.24,5.1.74,11.61.04,16.38-.2,1.41.56,1.56-1.44,1.42-8.16-.55-17.18-3.15-25.45-3.86l2.88-52.78-17.27,2.88v47.99l-6.59-.13c-4.21-15.58-2.75-31.9-2.05-47.86h-17.28Z"/>
      <path class="cls-3" d="M788.03,297.9l11.23,46.99,46.43-8.22-24.93-36.94,29.03-3.66c4.69,3.48,30.24,15.73,31.96,19.01,1.33,2.52-3.75,9.73-5.03,12.53l-64.24,23.82-40.19,2.01-58.08-11.5c-1.1-1.06,6.52-8.04,7.66-9.13,13.41-12.8,27.95-24.52,41.3-37.39,5.55-2.37,18.37,3.1,24.84,2.48Z"/>
      <path class="cls-3" d="M806.37,563.66l-40.76,3.79c-15.23-7.68-26.58-17.8-36.8-31.34l-2.12-32.92,51.83-1.91c-2.67,5.87-6.71,10.58-8.35,17.07-4.72,18.7,4.18,34.86,24.67,33.79,1.5-9.64,1.17-20.7,2.97-30.14.63-3.33,3.7-9.1,3.65-11.63s-4.77-9.49-5.43-13.65c-1.5-9.47.19-15.65,9.58-18.76,4.42-1.46,19.07-4.3,22.43-1.73,3,2.29,4.96,22.66,6.91,27.33-4.97,4.29-10.19,7.04-14.69,12.1-11.82,13.28-15.03,30.61-13.9,48Z"/>
    </g>
  </g>
  <g id="Capa_27" data-name="Capa 27">
    <path class="cls-1" d="M382.1,72.08c2.18-14.66,7.11-23.39,23-27.75,15.89-4.36,42.75-4.33,88.81-1.48,54.1,3.36,88.22,13.25,83.86,42.56s-58.28,82.31-114.12,74-85.91-58.03-81.55-87.34Z"/>
    <path class="cls-4" d="M127.36,470.74c16.73-5.79,34.06-10.14,51.43-13.52,6.11-1.19,12.25-2.22,18.42-3.05l-3.83.51c13.42-1.8,27.22-2.9,40.7-1.1l-3.83-.51c3.54.49,7.05,1.19,10.45,2.29.76.24,1.5.51,2.24.79,3.01,1.13-3.88-1.83-1.03-.42,1.36.67,2.68,1.37,3.94,2.21.29.2.57.41.86.6,1.54,1.04-3.52-2.92-1.75-1.34.51.45,1.03.89,1.51,1.37s.9.99,1.35,1.49c1.21,1.33-2.5-3.46-1.55-2.01.21.32.44.62.65.94.36.57.68,1.15,1,1.75,1.39,2.6-1.43-4.04-.53-1.29.48,1.48.87,2.95,1.08,4.5l-.51-3.83c.33,2.58.26,5.16-.06,7.74l.51-3.83c-.56,4.2-1.75,8.28-3.29,12.22-.11.29-.23.58-.35.87-.8,2.06.95-2.23.97-2.28-.35.76-.66,1.53-1.01,2.29-.69,1.51-1.43,3-2.2,4.48-1.74,3.33-3.65,6.58-5.68,9.74-1.15,1.79-2.35,3.56-3.59,5.3-.58.82-1.18,1.64-1.78,2.45-.35.47-.71.94-1.06,1.41-.63.84-1.62,2.02,1.44-1.85-.23.29-.46.59-.69.89-6.28,7.96-13.36,15.29-21.11,21.83-.96.81-1.93,1.6-2.9,2.39-.56.45-1.16.88-1.71,1.34-.12.1,3.24-2.46,1.61-1.25-.37.27-.73.55-1.1.83-2.32,1.73-4.7,3.38-7.12,4.97-4.99,3.26-10.18,6.21-15.54,8.82-1.55.75-3.12,1.48-4.7,2.18-.38.17-.75.33-1.13.49-2.05.9,3.02-1.23,1.44-.61-.87.34-1.73.71-2.61,1.05-3.37,1.31-6.8,2.5-10.26,3.55-7.59,2.3-15.35,3.94-23.21,5.01l3.83-.51c-13.55,1.77-27.44,1.93-40.99.16l3.83.51c-6.09-.83-12.14-2.12-17.91-4.28-.57-.21-1.12-.45-1.69-.66-1.24-.48,4.03,1.84,1.36.55-1.16-.56-2.31-1.11-3.43-1.73-.93-.52-1.84-1.07-2.73-1.65-.49-.32-.97-.66-1.45-1-2.37-1.63,2.79,2.31,1.21.95s-3.04-2.67-4.38-4.22c-.86-.99-2-2.94,1.03,1.41-.29-.42-.61-.82-.9-1.24-.5-.72-.96-1.47-1.39-2.24-.49-.87-.89-1.77-1.33-2.66,2.55,5.15.89,2.18.4.69-.61-1.88-1.03-3.81-1.29-5.76l.51,3.83c-.43-3.43-.36-6.88.1-10.31l-.51,3.83c.36-2.55.92-5.07,1.65-7.54.34-1.15.72-2.28,1.13-3.41.22-.61.46-1.21.69-1.81,1.05-2.69-1.64,3.66-.43,1.03,2.37-5.17,5.25-10.05,8.61-14.64.38-.52,2.21-2.9.32-.46s-.08.12.38-.44c1.03-1.27,2.09-2.51,3.18-3.72,2-2.22,4.09-4.35,6.27-6.4s4.66-4.13,7.1-6.08c1.3-1.04-3.28,2.49-1.5,1.17.27-.2.54-.41.82-.61.61-.45,1.23-.9,1.86-1.34,1.32-.93,2.66-1.83,4.02-2.7,3.01-1.92,6.12-3.68,9.32-5.26,1.52-.75,3.07-1.44,4.61-2.12-4.96,2.2-1.86.78-.62.31.94-.36,1.89-.71,2.85-1.04,7.09-2.48,12.57-9.96,10.06-17.71-2.27-7.01-10.1-12.72-17.71-10.06-19.77,6.92-37.94,19.38-51.06,35.77-6.89,8.6-12.38,17.52-16.29,27.85-2.98,7.9-4.62,16.89-3.67,25.32,1.2,10.59,5.06,20.07,12.51,27.87s18.23,13.05,28.78,15.93c13.67,3.72,28.44,4.51,42.55,3.92s28.33-2.77,41.82-6.94c22.91-7.07,43.86-19.37,61.41-35.66,12.65-11.74,23.88-25.83,31.83-41.19s13.56-33.66,5.09-49.9c-8.29-15.88-27.65-20.5-44.01-21.73-18.45-1.38-37.31,1.42-55.4,4.82-15.57,2.93-31.01,6.77-46.14,11.49-2.49.78-4.96,1.58-7.43,2.43-7.1,2.46-12.56,9.98-10.06,17.71,2.28,7.03,10.09,12.69,17.71,10.06Z"/>
    <path class="cls-4" d="M410.69,464.1c.16-.1.32-.18.48-.27,1.85-1-3.01,1.21-2.66,1.1.61-.19,1.21-.46,1.82-.66,1.66-.55,3.35-1,5.04-1.42,5.09-1.27,10.25-2.25,15.42-3.12,3.74-.63,7.49-1.19,11.25-1.69l-3.83.51c19.59-2.61,39.48-3.91,59.23-2.94,5.61.27,11.2.75,16.77,1.5l-3.83-.51c4.82.66,9.61,1.51,14.32,2.69,2.28.57,4.53,1.21,6.76,1.94.95.31,1.9.64,2.84.99.46.17.92.35,1.38.53.28.11.57.23.85.34,1.9.74-2.42-1.04-2.27-.96,3.6,1.84,7.07,3.52,10.4,5.85,2.1,1.47-3.09-2.54-1.52-1.17.36.31.73.61,1.09.92.7.62,1.38,1.26,2.03,1.94.57.59,1.1,1.21,1.64,1.83,1.57,1.8-2.46-3.38-1.22-1.6.26.37.53.74.78,1.12.56.84,1.07,1.71,1.53,2.6.23.45.43.92.66,1.37.73,1.42-1.21-3.06-1.09-2.6.08.29.24.58.33.86.69,2.01,1.22,4.02,1.51,6.13l-.51-3.83c.4,3.15.34,6.32-.07,9.47l.51-3.83c-.43,3.15-1.16,6.25-2.03,9.3-.54,1.89-1.14,3.77-1.82,5.62-.31.86-.65,1.71-.98,2.56-.67,1.72,1.6-3.6.53-1.25-.23.51-.46,1.03-.7,1.54-1.59,3.42-3.43,6.73-5.5,9.88-.92,1.4-1.93,3.49-3.22,4.56-.02.02,2.43-3.04,1.04-1.37-.28.34-.55.68-.82,1.01-.69.84-1.4,1.66-2.13,2.47-2.46,2.75-5.11,5.33-7.91,7.74-.66.57-1.33,1.12-2,1.67-.28.23-.71.69-1.02.81-.03.01,3.12-2.34,1.36-1.06-1.58,1.16-3.17,2.31-4.81,3.39-3.11,2.05-6.34,3.91-9.66,5.6-1.57.8-3.16,1.55-4.77,2.27-.4.18-.81.35-1.21.53,4.04-1.88,2.31-.96,1.3-.56-.93.37-1.85.74-2.79,1.08-8.15,3.05-16.65,5.1-25.27,6.28l3.83-.51c-11.55,1.51-23.2,1.29-34.73-.25l3.83.51c-7.62-1.06-15.15-2.73-22.42-5.24-1.62-.56-3.22-1.18-4.81-1.8-2.8-1.08,3.43,1.52.72.31-.88-.4-1.76-.79-2.63-1.2-2.93-1.4-5.78-2.95-8.53-4.67-1.2-.75-2.38-1.53-3.54-2.35-.64-.45-1.26-.92-1.89-1.38-1.29-.92,2.92,2.3,1.69,1.31-.33-.27-.67-.53-1-.79-2.3-1.87-4.48-3.88-6.52-6.03-.87-.92-1.72-1.87-2.53-2.84-.4-.48-.78-.97-1.18-1.45,3.43,4.1,1.38,1.8.59.7-1.52-2.13-2.9-4.36-4.11-6.69-.34-.65-.66-1.3-.97-1.96-.12-.26-.24-.53-.36-.79-.91-1.93.84,2.01.85,2.05-.19-1.3-1.07-2.75-1.48-4.02-.85-2.67-1.47-5.4-1.86-8.17l.51,3.83c-.55-4.1-.57-8.24-.04-12.34l-.51,3.83c.48-3.51,1.34-6.96,2.59-10.27.16-.43.46-.93.55-1.38-.06.32-1.81,4.02-.77,1.88.37-.77.73-1.55,1.13-2.32.88-1.68,1.86-3.32,2.92-4.89.5-.74,1.06-1.45,1.57-2.19-3.13,4.58-1.05,1.35-.1.25,1.28-1.49,2.64-2.91,4.06-4.26.76-.73,1.55-1.43,2.35-2.12,1.03-.88,4.5-3.38,0-.1,1.82-1.33,3.65-2.62,5.56-3.82,6.39-3.98,9.46-13.04,5.17-19.7s-12.86-9.43-19.7-5.17c-16.36,10.2-30.15,26.44-33.04,46.02-1.43,9.68-1.14,19.39,1.92,28.78s8.42,18.44,15.25,26.1c14.87,16.69,37.1,26.34,58.8,30.02,13.43,2.28,27.13,3.23,40.7,1.65,14.14-1.65,27.34-5.11,40.37-10.87,11.56-5.1,22.34-12.42,31.34-21.29,9.96-9.82,17.3-21.6,22.3-34.6,3.43-8.91,6-19.23,4.99-28.85s-4.18-17.16-10.02-24.47c-9.13-11.42-24.32-17.42-38.16-20.63-16.38-3.8-33.49-4.79-50.26-4.54s-32.88,1.83-49.19,4.17c-9.64,1.38-19.74,2.74-28.99,5.96-2.04.71-4.16,1.44-6.01,2.56-6.44,3.91-9.43,13.09-5.17,19.7s12.81,9.35,19.7,5.17Z"/>
    <path class="cls-1" d="M764.86,241.53c35.57-1.21,127.47,21.48,128.52,52.37,1.05,30.89-89.15,58.3-124.72,59.51-35.57,1.21-65.26-22.85-66.31-53.75s26.93-56.92,62.51-58.13Z"/>
    <path class="cls-4" d="M151.16,167.33c-1.49.98-6.62,1.91-6.61,1.92.38.1.88.02,1.27.07,1.33.16,2.67.27,4.01.41,4.66.51,9.32,1.01,13.99,1.37,14.84,1.14,29.77,1.11,44.6-.22,14.29-1.28,25.84-6.86,36.05-16.99,7.99-7.93,14.73-17.63,19.68-27.74,4.58-9.35,8.18-18.36,5.74-28.83-2.86-12.27-7.2-24.55-13.61-35.43-10.28-17.45-26.63-30.98-46.58-35.61-35.15-8.16-71.53,6.77-102.38,22.41-10.89,5.52-21.77,11.23-32.42,17.21s-21.53,12.6-27.51,23.1c-7.7,13.51-2.65,28.4,8.06,38.52,16.46,15.55,39.48,24.29,60.14,32.43,7.95,3.13,15.97,6.07,24.02,8.91,7.41,2.61,16.74-2.96,18.45-10.48,1.91-8.39-2.54-15.65-10.48-18.45s-15.03-5.39-22.46-8.3c-3.26-1.27-6.5-2.58-9.74-3.92-1.63-.67-.22-.09.09.04-.68-.29-1.35-.58-2.03-.87-1.52-.66-3.04-1.32-4.55-2-9.02-4.05-17.98-8.45-26.23-13.92-1.39-.92-2.71-1.94-4.08-2.87-.62-.42,2.69,2.28.38.25-.61-.53-1.23-1.05-1.82-1.59-1-.92-1.93-1.89-2.86-2.88-2.74-2.89,1.44,2.66-.13-.16-.42-.75-.89-2.08-1.48-2.68.47.47,1.24,4.12.9,1.98-.07-.4-.2-1-.36-1.38-.98-2.22.7,3.98.3,2.25-.08-.33-.05-.81-.02-1.14.23-2.1-1.45,4.56-.06,1.02,1.21-3.07-1.93,3.18-.52,1.07.51-.76,1.07-1.64,1.49-2.45.81-1.58-2.62,2.9-1.29,1.67.33-.3.58-.7.89-1.02.77-.79,1.54-1.59,2.36-2.33s1.71-1.39,2.52-2.12c.66-.6-3.4,2.45-1.34,1.06.53-.36,1.04-.75,1.56-1.12,2.07-1.45,4.21-2.79,6.38-4.09,9.4-5.63,19.26-10.55,28.94-15.67,5.96-3.15,11.96-6.21,18.06-9.08,1.52-.71,3.04-1.41,4.57-2.1.78-.35,1.56-.7,2.34-1.04.52-.23,1.05-.45,1.58-.69,2-.89-1.01.23-1.19.49.58-.87,3.86-1.59,4.87-1.98,1.93-.76,3.86-1.49,5.81-2.2,7.3-2.64,14.77-4.88,22.38-6.44,1.89-.39,3.78-.7,5.68-1.03,3.01-.52-1.45.13-.49.04,1.16-.1,2.32-.27,3.49-.37,3.73-.33,7.48-.46,11.22-.32,1.7.07,3.39.22,5.09.37,3.33.28-2.81-.57-.22-.03.96.2,1.93.34,2.89.54,1.78.38,3.54.83,5.28,1.36.8.25,1.6.51,2.39.79.62.22,3.69,1.52,1.35.47s.37.21.91.47c.89.44,1.78.9,2.65,1.38,1.65.92,3.19,1.97,4.77,3,2.73,1.78-1.78-1.65.15.07.67.6,1.39,1.17,2.06,1.77,1.62,1.46,3.16,3.02,4.62,4.66.65.73,1.25,1.49,1.89,2.23,1.8,2.06-1.46-2.18.09.15,1.37,2.06,2.77,4.07,4.01,6.21,1.13,1.95,2.18,3.95,3.16,5.98.27.55,1.91,4.23,1.2,2.56-.63-1.49.83,2.15,1.08,2.83,2.08,5.62,3.51,11.36,5.04,17.14,1,3.79-.17-2.39-.13-1.54.08,1.94,1.04-4.45.27-1.92-.41,1.34-.69,2.7-1.14,4.03-.3.87-.68,1.72-.97,2.6-.24.72,1.41-3.02.12-.33-.93,1.94-1.86,3.87-2.88,5.76-1.13,2.08-2.33,4.11-3.6,6.1-.61.96-1.24,1.91-1.88,2.85-.5.74-2.89,4-1.9,2.7,1.11-1.45-1.04,1.26-1.4,1.68-.76.89-1.53,1.77-2.33,2.63-1.84,1.98-4.01,3.64-5.85,5.59-1.11,1.18.67-.47.82-.58-.45.33-.9.67-1.36.98-.92.61-1.83,1.23-2.78,1.79-1.09.64-2.24,1.14-3.34,1.76,2.52-1.4.7-.31-.86.14-.55.16-3.84,1.07-1.56.48s-.52.03-.97.07c-1.28.11-2.55.23-3.83.33-3.95.31-7.9.53-11.86.66-6.89.23-13.79.18-20.68-.12-8.8-.39-17.49-1.47-26.25-2.25-3.63-.32-7.6-.03-10.74,2.02-6.77,4.43-9.62,13.28-5.38,20.52,3.94,6.73,13.72,9.84,20.52,5.38Z"/>
    <path class="cls-1" d="M253.77,262.23c0,29.64-11.89,33.63-95.99,85.06-46.24,28.28-102.22-24.02-102.22-53.66s45.77-53.66,102.22-53.66,95.99-7.38,95.99,22.25Z"/>
    <path class="cls-1" d="M905.58,494.2c0,27.17-100.78-35.49-103.24,49.2-1.32,45.41-103.24-22.03-103.24-49.2s46.22-49.2,103.24-49.2,103.24,22.03,103.24,49.2Z"/>
    <path class="cls-1" d="M580.63,270.16c0,29.64-11.89,33.63-95.99,85.06-46.24,28.28-102.22-24.02-102.22-53.66s45.77-53.66,102.22-53.66,95.99-7.38,95.99,22.25Z"/>
    <path class="cls-1" d="M1206.92,105.96c0,57.15-47.78,73.61-77.08,27.11-58.52-92.87-128.01,26.85-123.67-29.65,4.38-56.98,45.83-60.99,100.8-60.99s99.95,6.38,99.95,63.53Z"/>
    <path class="cls-1" d="M883.35,101.31c-13.63,28.29-32.59,60.19-89.43,60.19s-99.89,11.59-96.08-56.38c1.76-31.35-27.95-67.98,96.08-57.34,56.63,4.86,128.67-27.95,89.43,53.52Z"/>
    <path class="cls-1" d="M1125.39,889.07c-.25,32.74,83.22,52.38-53.72,51.53-51.58-.32-13.62-21.75-13.62-52.8s-152.33-59.44,40.02-60.35c194.4-.92,27.56,30.57,27.32,61.62Z"/>
    <g id="Capa_25" data-name="Capa 25">
      <path class="cls-1" d="M999.61,493.28c34.27-11.65,80.86-21.49,109.91,1.91,23.7,19.09,20.69,48.22,41.93,54,23.56,6.41,61.82-20,67.34-55.91,4.46-29.01-14.41-51.39-17.79-55.27-9.79-2.42-23.75-5.55-40.66-8.26-58.75-9.41-118.79-19.03-146.12,11.44-6.33,7.05-15.98,21.92-14.61,52.09Z"/>
      <path class="cls-4" d="M993.46,758.2c7.57.24,13.64-5.92,15.07-12.99.81-4.01,1.13-8.14,1.68-12.2l-.51,3.83c.6-4.44,1.34-8.86,2.39-13.22.62-2.6,1.34-5.17,2.18-7.7.41-1.23.85-2.46,1.32-3.67.25-.64,1.27-3.1.2-.55-1.12,2.67.15-.28.41-.83,1.23-2.61,2.61-5.14,4.17-7.56.77-1.19,1.61-2.82,2.65-3.78.24-.22-2.21,2.74-1.21,1.6.22-.26.43-.52.64-.78.59-.7,1.19-1.38,1.81-2.05,1.03-1.11,2.1-2.17,3.22-3.19.61-.56,1.24-1.11,1.88-1.64.28-.23.57-.45.85-.69,1.24-1.05-3.08,2.23-.86.69,2.67-1.85,5.4-3.56,8.33-4.99.66-.32,3.64-1.63,1.18-.59s.69-.24,1.23-.44c1.65-.6,3.32-1.14,5-1.61,3.57-1,7.21-1.7,10.89-2.2l-3.83.51c9.99-1.27,20.09-.91,30.06.4l-3.83-.51c7.29.98,14.49,2.49,21.63,4.22,6.01,1.45,11.92,3.26,17.7,5.45,1.45.55,2.87,1.18,4.32,1.71-4.57-1.67-.32-.12.76.37,2.72,1.23,5.4,2.53,8.05,3.92,4.84,2.53,9.54,5.32,14.08,8.34,2.07,1.37,4.11,2.8,6.12,4.26,1.07.78,2.11,1.59,3.17,2.37-4.21-3.13-.29-.2.64.55,6.91,5.59,13.38,11.71,19.4,18.25,2.76,3,5.42,6.09,7.98,9.25.52.64,1.03,1.28,1.54,1.93.24.31.48.62.73.93,1.27,1.61-2.71-3.55-1.1-1.42.88,1.17,1.76,2.34,2.63,3.53,3.66,5.03,9.8,8.71,16.26,6.62,6.41-2.07,10.02-7.29,10.57-13.89,1.14-13.68,2.28-27.36,3.42-41.04.51-6.14,1.24-12.31,1.19-18.49-.12-14.63-3.14-29.14-9.55-42.32-8.86-18.22-25.82-31.15-45.24-36.34-14.37-3.85-29.48-3.47-44.22-3.59s-28.3.02-42.44.44c-16.04.48-32.03,1.74-48.06,2.41-5.47.23-10.69-.25-16.15.69-7.51,1.29-14.88,5.92-19.78,11.7-11.74,13.85-15.46,31.9-17.68,49.44-2.06,16.33-2.08,32.96-.92,49.36.54,7.61,1.39,15.22,2.59,22.75.78,4.92,1.73,9.8,3.98,14.29,1.78,3.55,5.59,7.29,9.65,7.96s7.53.63,11.1-1.45c2.99-1.75,5.84-5.17,6.62-8.61,1.58-6.94-2.11-16.4-10.06-17.71,3.71.61,6.16,3.56,8.01,6.13-.1-.13-.16-.28-.24-.42-.05-.07-.07-.16-.11-.23-.51-.85-1.9-7.03,1.27,3.02-.35-1.1-.73-2.17-1.01-3.29-.92-3.71-1.5-7.5-2.01-11.29l.51,3.83c-2.2-16.56-2.77-33.46-1.84-50.14.29-5.2.75-10.39,1.44-15.55l-.51,3.83c1.14-8.39,2.82-16.8,5.87-24.72.16-.41.33-.82.49-1.24.7-1.81-1.72,3.92-.8,1.89.4-.88.8-1.77,1.24-2.64.78-1.55,1.64-3.06,2.59-4.5.42-.63,1.15-1.33,1.43-2.02-.11.26-2.86,3.51-1.35,1.78.28-.32.55-.64.83-.95.52-.57,1.07-1.12,1.64-1.65.26-.24.53-.47.8-.71,1.9-1.7-2.62,1.88-1.62,1.23.67-.43,1.3-.9,1.98-1.3.79-.45,3.77-1.77.65-.45s-.1.1.81-.14,1.78-.41,2.69-.53l-3.83.51c3.7-.46,7.51.08,11.24-.06,5.17-.2,10.32-.58,15.48-.89,19.75-1.2,39.51-1.89,59.3-2,8.15-.05,16.3,0,24.44.11,7.41.11,14.84.07,22.2,1.02l-3.83-.51c3.53.48,7.04,1.16,10.48,2.11,1.58.44,3.15.93,4.7,1.48.66.24,1.32.48,1.98.74,2.95,1.17-3.7-1.67-.37-.14,2.64,1.22,5.19,2.63,7.61,4.24.58.38,1.15.78,1.71,1.19.25.18.49.37.74.54,1.38.97-1.84-1.45-1.84-1.42-.02.43,2.77,2.36,3.2,2.75,1.93,1.81,3.69,3.77,5.36,5.82,1.26,1.55-2.57-3.48-.99-1.26.36.5.72,1,1.07,1.52.73,1.07,1.42,2.16,2.07,3.27,1.21,2.06,2.26,4.19,3.25,6.37,1.1,2.41-1.4-3.46-.69-1.65.21.54.43,1.07.63,1.62.42,1.13.82,2.26,1.19,3.41,1.48,4.6,2.49,9.34,3.15,14.12l-.51-3.83c.91,6.81,1.12,13.72.49,20.56-1.07,11.59-1.94,23.2-2.9,34.79-.45,5.38-.9,10.76-1.34,16.14,8.94-2.42,17.89-4.85,26.83-7.27-22.57-30.98-52.72-55.87-89.22-68.57-17.26-6.01-36.37-9.69-54.63-10.02-23.6-.43-48.62,6.43-64.51,24.9-8.24,9.58-13.92,20.83-17.3,32.99-2.37,8.52-3.35,17.29-4.52,26.03l.51-3.83c-.16,1.18-.3,2.38-.58,3.53-.41,1.65-1.44,2.2,1.07-2.22-.05.1-.11.19-.16.29,1.65-2.76,5.02-5.9,8.17-6.32l3.83-.51h-.07c-7.54-.24-14.74,6.79-14.4,14.4.36,8,6.33,14.15,14.4,14.4Z"/>
      <path class="cls-1" d="M1010.31,299.51s4.72,43.06,34.81,45.29,41.29-75.72,139.81-54.94c0,0,22.42,40.83,22.42,38.6s-.61-82.99-32.45-86.12c-68.17-6.7-124.8-8.37-130.37-5.94-39.98,17.4-34.22,63.1-34.22,63.1Z"/>
      <path class="cls-1" d="M242.12,690.43c-22.98,29.54-28.4,72.85-88.52,72.85s-75.96-42.48-90.21-77.08c-29.65-72,30.1-58.45,90.21-58.45s135.95,1.69,88.52,62.68Z"/>
      <path class="cls-1" d="M261.68,841.39c-1.07,37.6-7.03,136.17-58.63,107.48-93.06-51.75-153.23-50.64-153.17-86.66.06-36.02,49.35-14.32,109.23-14.22,59.88.1,103.59-42.6,102.57-6.59Z"/>
      <path class="cls-1" d="M878.26,685.16c0,56.45-42.09,60.33-92.96,60.33s-91.27-3.88-91.27-60.33,38.14-51.36,89.02-51.36,95.22-5.1,95.22,51.36Z"/>
      <path class="cls-1" d="M577.56,689.16c35.61,18.21-26.9,52.09-87.25,52.09s-131.29-12.1-131.29-52.09,8.26-63.95,68.61-63.95,112.66,44.89,149.93,63.95Z"/>
      <ellipse class="cls-1" cx="465.64" cy="883.99" rx="68.93" ry="66.71"/>
      <path class="cls-1" d="M875.09,886.21c.12,37.73-101.78,69.63-156.28,60.04-53.04-9.34,40.02-40.91,40.02-76.87s-35.12-48.28,18.74-48.28,97.4,29.15,97.52,65.12Z"/>
    </g>
  </g>
</svg>